<?xml version="1.0" encoding="utf-8"?>
<!-- Generator: Adobe Illustrator 23.0.0, SVG Export Plug-In . SVG Version: 6.00 Build 0)  -->
<svg version="1.1" xmlns="http://www.w3.org/2000/svg" xmlns:xlink="http://www.w3.org/1999/xlink" x="0px" y="0px"
	 viewBox="0 0 500 500" style="enable-background:new 0 0 500 500;" xml:space="preserve">
<style type="text/css">
	.st0{fill:#FFFFFF;stroke:#000000;stroke-miterlimit:10;}
	.st1{fill:#FFFFFF;}
	.st2{fill:#FFC529;}
	.st3{fill:#FE724C;}
	.st4{font-family:'CooperBlack';}
	.st5{font-size:72.4672px;}
	.st6{fill:#FCFCFC;}
	.st7{fill:#FFC529;stroke:#FFC529;stroke-miterlimit:10;}
	.st8{fill:#F7F6F5;}
</style>
<g id="Layer_1">
	<path class="st0" d="M190.33,187.92"/>
	<g>
		<path class="st1" d="M119,180c0,0,117.7,88.95,239-2"/>
		<path class="st2" d="M120.39,178.17c4.12,3.06,8.64,5.93,13.16,8.62c4.54,2.7,9.18,5.24,13.92,7.59
			c9.46,4.73,19.24,8.85,29.28,12.25c20.06,6.82,41.14,10.69,62.35,11.15c10.61,0.14,21.22-0.66,31.73-2.23l7.84-1.41
			c1.32-0.2,2.6-0.56,3.89-0.86l3.87-0.94l3.88-0.94c1.28-0.34,2.54-0.77,3.82-1.15l7.62-2.35c20.09-7.05,39.03-17.3,56.26-29.9
			c-16.99,12.91-35.79,23.53-55.87,30.99l-7.63,2.51c-1.28,0.41-2.54,0.86-3.83,1.23l-3.89,1.02l-3.89,1.02
			c-1.3,0.33-2.58,0.71-3.91,0.94l-7.89,1.56c-10.57,1.78-21.29,2.78-32.03,2.83c-21.48-0.08-42.93-3.61-63.41-10.17
			c-10.25-3.27-20.25-7.28-29.97-11.92c-4.86-2.31-9.64-4.8-14.32-7.48c-4.69-2.69-9.25-5.46-13.76-8.68
			c-1.03-0.74-1.27-2.17-0.53-3.21c0.74-1.03,2.17-1.27,3.21-0.53c0.01,0.01,0.02,0.01,0.02,0.02L120.39,178.17z"/>
	</g>
	<text transform="matrix(1 0 0 1 97.4702 167.4053)" class="st3 st4 st5">FoodJet</text>
	<g>
		<g>
			<path class="st2" d="M392.35,426.85c-1.44-0.05-2.87-0.2-4.3-0.44c-0.63-0.11-0.9,0.86-0.27,0.96c1.51,0.26,3.03,0.42,4.56,0.47
				C392.99,427.87,392.99,426.87,392.35,426.85L392.35,426.85z"/>
		</g>
	</g>
	<g>
		<g>
			<path class="st2" d="M391.54,427.97c0,0.97,0,1.94,0,2.9c0,0.64,1,0.64,1,0c0-0.97,0-1.94,0-2.9
				C392.54,427.32,391.54,427.32,391.54,427.97L391.54,427.97z"/>
		</g>
	</g>
	<g>
		<g>
			<path class="st6" d="M294.04,72.58c-0.99-2.71-1.29-5.48-1.48-8.34c-0.04-0.64-1.04-0.64-1,0c0.19,2.96,0.49,5.8,1.51,8.6
				C293.29,73.45,294.26,73.19,294.04,72.58L294.04,72.58z"/>
		</g>
	</g>
	<g>
		<path class="st1" d="M339,85c-21-21-125-71-218.16,13.2"/>
		<path class="st2" d="M337.59,86.41c-3.36-3.29-7.31-6.2-11.38-8.86c-4.1-2.64-8.39-5-12.75-7.24
			c-8.79-4.34-17.97-7.94-27.39-10.76c-18.83-5.66-38.64-8.22-58.33-7.18c-9.84,0.51-19.64,1.91-29.24,4.16
			c-9.63,2.19-18.98,5.51-28.04,9.45l-3.39,1.51l-1.69,0.75c-0.56,0.26-1.1,0.56-1.65,0.84l-6.59,3.4
			c-2.18,1.16-4.27,2.49-6.42,3.73l-3.2,1.89l-3.09,2.06c-2.05,1.38-4.13,2.74-6.16,4.15l-5.94,4.47c-0.98,0.75-1.99,1.47-2.96,2.25
			l-2.84,2.39l-5.69,4.79l5.61-4.89l2.8-2.44c0.95-0.79,1.95-1.53,2.92-2.3l5.87-4.58c2.02-1.44,4.07-2.84,6.11-4.26l3.06-2.12
			l3.17-1.95c2.13-1.28,4.21-2.64,6.38-3.85l6.56-3.53c0.55-0.29,1.09-0.6,1.65-0.87l1.69-0.79l3.38-1.58
			c9.04-4.11,18.41-7.62,28.09-9.99c9.66-2.44,19.54-4.02,29.49-4.71c19.91-1.38,40.05,0.86,59.29,6.29
			c9.62,2.71,19.03,6.21,28.09,10.5c8.98,4.45,17.83,9.3,25.41,16.43L337.59,86.41z"/>
	</g>
</g>
<g id="Layer_2">
	<path class="st2" d="M138.05,217.29c-9.94,16.84-8.87,36.95,5.2,46.79c8.17,5.71,20.51,11.72,31.76,5.92c6.67-3.44,6-9,4-21
		c-2.8-16.77,0.52-33.96,12.32-34.96c1.79-0.15-21.25-11.42-37.32-8.04C147.74,207.32,141.49,211.46,138.05,217.29z"/>
	<g>
		<path class="st7" d="M373.45,112.84c0,0-3.23,0.74-7.2-1.74c-3.97-2.48-5.96-3.72-5.96-3.72l-10.18,7.45l-4.47,2.73
			c0,0-1.24,1.99-1.99-1.24c-0.74-3.23,9.93-15.89,9.93-15.89l-6.7-6.95l-5.21-0.5l4.47-2.73"/>
		<path class="st7" d="M374.49,111.69c0,0-0.03-3.31-3.37-6.59s-5.01-4.92-5.01-4.92l4.86-11.64l1.61-4.98c0,0,1.64-1.67-1.67-1.64
			c-3.31,0.03-13.13,13.37-13.13,13.37l-8.32-4.89l-1.7-4.95l-1.61,4.98"/>
	</g>
</g>
<g id="Layer_3">
	<path class="st8" d="M171,210l-14,6c0,0-7,2-8,12c-0.7,6.97,4,21,4,21l0.85-16.23c0.12-2.31,0.34-4.69,1.31-6.8
		C157,222,158,221,159,220L171,210z"/>
</g>
</svg>
